Coordinates
version=1
nRows=32
nColumns=12
inDegrees=yes

Units are S.I. units (second, meters, Newtons, ...)
Angles are in degrees

endheader
time	SC_y	SC_z	SC_x	AC_y	AC_z	AC_x	GH_y	GH_z	GH_yy	EL_x	PS_y
       0.0              -35.01          27.51          5.002          56.88         -15.02          18.28         -144.4          9.065         -69.76          85.23          48.61
   0.04391              -35.01           27.5          5.005          56.88         -15.02          18.28         -144.4          9.065         -69.76          85.24          48.62
   0.08782               -35.0           27.5          5.007          56.88         -15.02          18.27         -144.4          9.066         -69.75          85.24          48.63
    0.1317               -35.0          27.49           5.01          56.88         -15.02          18.27         -144.4          9.066         -69.75          85.25          48.64
    0.1756               -35.0          27.49          5.013          56.88         -15.02          18.26         -144.3          9.067         -69.74          85.26          48.65
    0.2195              -34.99          27.48          5.016          56.89         -15.02          18.25         -144.3          9.067         -69.73          85.26          48.66
    0.2635              -34.99          27.48          5.019          56.89         -15.01          18.25         -144.2          9.068         -69.73          85.27          48.67
    0.3074              -34.98          27.47          5.023          56.89         -15.01          18.24         -144.2          9.069         -69.72          85.28          48.69
    0.3513              -34.98          27.46          5.026          56.89         -15.01          18.23         -144.2          9.069         -69.71          85.29           48.7
    0.3952              -34.97          27.46           5.03           56.9         -15.01          18.22         -144.1           9.07         -69.71           85.3          48.72
    0.4391              -34.97          27.45          5.035           56.9         -15.01          18.21         -144.1          9.071          -69.7          85.31          48.73
     0.483              -34.96          27.44          5.039           56.9          -15.0           18.2         -144.0          9.072         -69.69          85.32          48.75
    0.5269              -34.95          27.43          5.045           56.9          -15.0          18.19         -143.9          9.073         -69.68          85.33          48.77
    0.5708              -34.95          27.42           5.05          56.91          -15.0          18.18         -143.9          9.074         -69.67          85.35          48.79
    0.6147              -34.94          27.41          5.056          56.91          -15.0          18.17         -143.8          9.075         -69.66          85.36          48.81
    0.6586              -34.93           27.4          5.062          56.92         -14.99          18.16         -143.7          9.076         -69.64          85.38          48.83
    0.7025              -34.92          27.39          5.069          56.92         -14.99          18.14         -143.6          9.078         -69.63          85.39          48.86
    0.7464              -34.91          27.37          5.077          56.93         -14.99          18.12         -143.6          9.079         -69.62          85.41          48.89
    0.7904               -34.9          27.36          5.085          56.93         -14.98          18.11         -143.5          9.081          -69.6          85.43          48.92
    0.8343              -34.89          27.34          5.094          56.94         -14.98          18.09         -143.4          9.082         -69.58          85.45          48.95
    0.8782              -34.87          27.32          5.104          56.95         -14.97          18.07         -143.2          9.084         -69.56          85.48          48.99
    0.9221              -34.86           27.3          5.115          56.95         -14.97          18.04         -143.1          9.086         -69.54           85.5          49.03
     0.966              -34.84          27.28          5.127          56.96         -14.96          18.02         -143.0          9.089         -69.52          85.53          49.08
      1.01              -34.82          27.26           5.14          56.97         -14.95          17.99         -142.8          9.091         -69.49          85.57          49.13
     1.054               -34.8          27.23          5.155          56.98         -14.95          17.96         -142.6          9.094         -69.46           85.6          49.18
     1.098              -34.78           27.2          5.171          56.99         -14.94          17.92         -142.4          9.097         -69.43          85.64          49.24
     1.142              -34.76          27.17           5.19           57.0         -14.93          17.88         -142.2          9.101          -69.4          85.69          49.31
     1.186              -34.73          27.13          5.211          57.02         -14.92          17.84         -142.0          9.105         -69.36          85.74          49.39
     1.229               -34.7          27.09          5.234          57.03         -14.91          17.79         -141.7           9.11         -69.31           85.8          49.48
     1.273              -34.66          27.04          5.261          57.05          -14.9          17.73         -141.4          9.115         -69.26          85.86          49.58
     1.317              -34.62          26.98          5.291          57.07         -14.88          17.67         -141.0          9.121          -69.2          85.94          49.69
     1.361              -34.57          26.92          5.327           57.1         -14.86          17.59         -140.6          9.127         -69.13          86.02          49.82
